<?xml version="1.0" standalone="no"?>
<!DOCTYPE svg PUBLIC "-//W3C//DTD SVG 20010904//EN"
 "http://www.w3.org/TR/2001/REC-SVG-20010904/DTD/svg10.dtd">
<svg version="1.0" xmlns="http://www.w3.org/2000/svg"
 width="805.000000pt" height="532.000000pt" viewBox="0 0 805.000000 532.000000"
 preserveAspectRatio="xMidYMid meet">

<g transform="translate(0.000000,532.000000) scale(0.100000,-0.100000)"
fill="#fff" stroke="none">
<path d="M6013 4932 c-70 -105 -73 -145 -18 -251 21 -40 38 -85 38 -100 0 -14
-13 -55 -28 -90 -21 -50 -26 -75 -23 -112 5 -44 3 -47 -13 -39 -29 16 -82 11
-116 -10 -40 -24 -42 -36 -8 -44 67 -17 145 -126 180 -252 9 -32 19 -66 22
-74 2 -8 16 22 29 68 42 146 102 232 176 254 l39 11 -26 26 c-20 21 -35 26
-73 26 -26 0 -55 -4 -64 -9 -16 -7 -17 -5 -7 22 12 36 0 92 -37 164 -22 44
-23 49 -9 89 8 23 24 56 34 73 29 48 44 104 37 141 -6 33 -81 155 -94 155 -4
0 -21 -21 -39 -48z m56 -713 c15 -44 14 -130 -3 -169 -13 -33 -14 -33 -25 -11
-19 36 -25 117 -11 166 7 25 16 45 20 45 5 0 13 -14 19 -31z"/>
<path d="M5786 4734 c-30 -29 -12 -94 25 -94 32 0 59 19 59 40 0 11 4 20 10
20 14 0 60 -71 61 -95 0 -11 3 -14 6 -8 8 21 -17 83 -49 119 -34 38 -84 46
-112 18z"/>
<path d="M6222 4734 c-23 -16 -62 -83 -62 -106 0 -7 10 5 23 26 23 41 47 58
47 33 0 -22 36 -49 62 -45 13 2 28 15 36 31 29 60 -46 103 -106 61z"/>
<path d="M6151 4594 c0 -11 3 -14 6 -6 3 7 2 16 -1 19 -3 4 -6 -2 -5 -13z"/>
<path d="M5724 4574 c-65 -32 -74 -136 -15 -181 9 -7 34 -13 55 -13 37 0 38 1
23 18 -20 22 -22 63 -5 80 19 19 66 14 89 -9 11 -11 27 -36 35 -55 19 -46 23
-43 13 10 -26 141 -100 197 -195 150z"/>
<path d="M6245 4557 c-20 -20 -39 -54 -49 -87 -21 -70 -21 -108 0 -60 30 70
88 102 122 68 17 -17 15 -64 -4 -82 -14 -15 -12 -16 23 -16 49 0 78 21 93 65
25 75 -30 145 -113 145 -31 0 -46 -7 -72 -33z"/>
<path d="M5374 4375 c-3 -20 -4 -53 -2 -73 l5 -37 -73 3 c-82 5 -151 -14 -199
-52 l-30 -24 24 -26 c13 -14 40 -31 60 -37 l35 -12 -50 -22 c-45 -20 -154
-124 -154 -147 0 -4 20 -13 45 -19 l45 -11 -30 -35 c-29 -33 -54 -83 -66 -130
-6 -21 -3 -23 35 -23 23 0 56 7 72 16 l30 15 -5 -33 c-3 -18 -8 -55 -12 -83
-3 -27 -12 -62 -20 -77 -14 -27 -14 -28 11 -28 51 0 95 27 113 70 9 22 19 40
22 39 3 0 19 -19 35 -41 42 -58 103 -88 179 -88 43 0 71 6 94 20 33 20 41 35
21 42 -6 2 5 20 25 40 24 24 36 45 36 64 l0 28 -23 -32 c-73 -98 -193 -123
-294 -61 -37 23 -70 72 -89 132 l-13 42 0 -57 c-1 -55 -16 -108 -32 -108 -4 0
-3 17 1 38 20 94 30 162 30 208 0 27 9 68 20 93 18 40 19 43 2 36 -30 -12
-116 -35 -134 -35 -41 0 -12 17 75 44 71 22 102 37 135 68 24 22 66 50 93 63
58 27 58 27 -93 46 -54 7 -98 16 -98 21 0 15 106 8 186 -13 49 -12 117 -21
179 -22 90 -2 107 -5 168 -34 75 -36 164 -114 201 -177 76 -131 75 -315 -4
-471 -23 -47 -25 -54 -8 -35 62 73 107 239 93 349 -22 174 -133 376 -266 481
-64 50 -89 53 -89 8 0 -43 31 -93 70 -113 18 -9 29 -19 26 -22 -3 -3 -27 5
-53 18 -40 20 -50 31 -63 68 -19 56 -47 76 -140 102 -41 11 -85 30 -97 41
l-22 20 -7 -37z m142 -94 c62 -23 104 -55 104 -78 0 -10 -7 -8 -27 6 -16 11
-54 30 -85 41 -55 20 -98 58 -98 86 0 8 9 4 23 -10 13 -13 50 -33 83 -45z
m-351 -409 c-6 -5 -26 -15 -45 -22 -19 -7 -45 -22 -57 -33 -25 -22 -29 -17
-12 14 6 12 25 27 42 34 35 16 87 20 72 7z"/>
<path d="M6693 4385 c-11 -8 -53 -23 -94 -35 -89 -24 -121 -46 -134 -91 -15
-50 -23 -59 -72 -81 -51 -22 -70 -18 -25 6 46 24 72 63 72 107 0 51 -17 51
-86 -1 -98 -74 -215 -257 -249 -389 -24 -93 -22 -222 5 -302 18 -54 82 -169
94 -169 2 0 -11 28 -30 63 -134 253 -52 528 195 650 60 29 75 32 171 34 69 1
130 9 179 23 75 20 181 27 181 12 0 -5 -46 -15 -102 -22 -137 -17 -152 -23
-100 -38 23 -7 65 -34 94 -61 45 -41 69 -54 146 -77 50 -16 92 -33 92 -38 0
-12 -77 2 -126 23 l-42 19 20 -46 c14 -31 21 -69 22 -114 0 -38 3 -68 7 -68 3
0 9 -28 12 -63 3 -34 9 -71 13 -82 6 -19 6 -19 -11 -3 -12 11 -20 38 -24 80
-6 58 -7 60 -14 28 -19 -91 -106 -161 -200 -162 -66 -1 -115 22 -162 73 -19
21 -38 39 -41 39 -17 0 11 -58 39 -83 25 -22 29 -30 18 -36 -36 -22 42 -61
121 -61 29 0 71 9 93 19 39 17 105 81 105 101 0 20 15 9 30 -22 19 -41 56 -67
104 -75 37 -6 38 -5 26 17 -6 12 -16 52 -21 89 -5 36 -12 79 -15 95 l-6 28 29
-22 c23 -16 41 -20 76 -18 l46 3 -24 59 c-13 32 -35 71 -49 85 -14 15 -26 30
-26 34 0 4 20 12 45 18 l45 11 -22 32 c-41 57 -109 115 -148 127 l-39 12 48
23 c27 12 54 31 60 41 8 17 2 24 -47 54 -54 32 -60 34 -153 34 l-97 0 10 25
c9 25 2 96 -11 105 -4 2 -17 -2 -28 -10z m0 -52 c-12 -35 -45 -61 -111 -88
-37 -16 -75 -35 -84 -43 -26 -22 -22 2 5 32 12 13 45 32 74 41 28 9 64 29 80
44 33 33 45 38 36 14z m310 -466 c30 -13 65 -44 56 -50 -2 -2 -33 11 -69 29
-44 23 -58 33 -42 34 12 0 37 -6 55 -13z"/>
<path d="M5432 4131 c-99 -34 -184 -128 -198 -219 -14 -95 34 -223 99 -263 46
-27 139 -26 192 4 130 73 134 246 7 308 -69 34 -150 4 -167 -61 -5 -21 -4 -22
5 -7 6 9 24 24 40 32 91 47 188 -28 178 -137 -15 -155 -211 -202 -297 -71 -36
54 -46 96 -38 168 16 152 153 257 316 241 80 -7 186 -56 253 -115 128 -114
155 -316 67 -502 -17 -35 -42 -80 -57 -99 -17 -22 -19 -30 -7 -20 33 27 95
132 115 198 36 117 22 259 -37 359 -53 90 -174 170 -292 193 -76 14 -118 12
-179 -9z"/>
<path d="M6468 4135 c-236 -60 -367 -269 -317 -507 15 -69 67 -172 113 -223
l37 -40 -37 53 c-92 133 -126 308 -84 431 25 75 34 89 97 154 28 29 75 62 122
85 69 33 84 36 161 37 73 0 93 -4 141 -27 60 -30 114 -89 135 -147 7 -20 13
-65 14 -100 0 -79 -26 -139 -78 -179 -29 -22 -45 -27 -98 -27 -75 0 -108 20
-141 85 -40 78 -22 153 47 194 41 23 102 17 136 -15 29 -27 32 -12 4 24 -58
74 -179 47 -229 -50 -36 -69 5 -182 83 -228 50 -29 139 -34 186 -10 64 33 110
128 110 225 0 73 -20 120 -76 180 -79 85 -202 117 -326 85z"/>
<path d="M5467 4079 c-22 -13 -22 -58 -1 -66 39 -15 73 46 37 65 -12 7 -25 7
-36 1z"/>
<path d="M6608 4083 c-22 -5 -30 -30 -18 -54 21 -38 79 -12 65 30 -6 21 -22
29 -47 24z"/>
<path d="M5564 4066 c-10 -26 4 -48 28 -44 17 2 23 10 23 28 0 18 -6 26 -23
28 -13 2 -25 -3 -28 -12z"/>
<path d="M6484 4065 c-9 -23 3 -45 24 -45 25 0 44 23 36 44 -8 20 -53 21 -60
1z"/>
<path d="M5677 4044 c-12 -12 -8 -42 6 -47 21 -8 39 8 35 29 -3 19 -29 30 -41
18z"/>
<path d="M6383 4034 c-3 -8 2 -23 11 -32 14 -15 18 -15 31 -1 9 9 13 23 9 32
-8 21 -43 22 -51 1z"/>
<path d="M5764 3979 c-3 -6 0 -17 7 -25 18 -17 44 -2 36 20 -7 18 -33 21 -43
5z"/>
<path d="M6294 3979 c-3 -6 0 -17 7 -25 18 -17 44 -2 36 20 -7 18 -33 21 -43
5z"/>
<path d="M5844 3899 c-10 -17 13 -36 27 -22 12 12 4 33 -11 33 -5 0 -12 -5
-16 -11z"/>
<path d="M6226 3901 c-7 -11 18 -33 27 -24 4 3 7 12 7 20 0 15 -26 18 -34 4z"/>
<path d="M6741 3864 c0 -11 3 -14 6 -6 3 7 2 16 -1 19 -3 4 -6 -2 -5 -13z"/>
<path d="M5420 3825 c-7 -8 -10 -21 -7 -29 3 -8 1 -17 -6 -19 -7 -3 0 -8 16
-12 45 -12 76 32 45 63 -16 16 -33 15 -48 -3z"/>
<path d="M6632 3828 c-30 -30 5 -77 47 -63 15 4 17 12 12 38 -7 35 -37 47 -59
25z"/>
<path d="M5890 3800 c0 -5 7 -10 15 -10 8 0 15 5 15 10 0 6 -7 10 -15 10 -8 0
-15 -4 -15 -10z"/>
<path d="M6190 3800 c0 -5 5 -10 10 -10 6 0 10 5 10 10 0 6 -4 10 -10 10 -5 0
-10 -4 -10 -10z"/>
<path d="M5811 3772 c-6 -11 -11 -41 -11 -65 l0 -45 -30 11 c-37 14 -47 4 -32
-33 7 -17 18 -44 24 -60 9 -22 10 -35 2 -47 -17 -28 -29 -25 -30 7 -1 28 -19
60 -33 60 -3 0 -15 -18 -25 -40 -14 -28 -26 -40 -41 -40 -18 0 -20 -5 -17 -33
6 -52 -16 -117 -53 -154 -44 -44 -54 -42 -48 7 7 53 -16 90 -58 90 -25 0 -29
-3 -24 -19 13 -42 -34 -110 -99 -143 l-29 -15 53 -13 c80 -19 170 -8 246 31
76 38 183 146 229 229 27 49 30 64 30 140 0 70 -4 91 -21 119 -21 33 -22 33
-33 13z m-42 -308 c-37 -74 -103 -140 -175 -175 -35 -18 -67 -29 -71 -26 -3 4
6 11 21 16 52 20 115 90 138 154 24 66 34 65 19 -3 l-9 -42 23 22 c13 12 34
41 46 65 31 59 37 49 8 -11z m-299 -144 c-11 -28 -57 -67 -66 -57 -3 2 6 11
20 20 13 9 30 33 37 54 7 21 14 32 17 25 2 -7 -1 -26 -8 -42z"/>
<path d="M6250 3738 c-48 -113 -5 -244 125 -373 91 -91 162 -127 265 -132 49
-3 89 0 115 10 l40 14 -38 18 c-55 26 -87 69 -87 116 0 37 -2 39 -30 39 -38 0
-65 -46 -55 -96 7 -38 0 -41 -33 -18 -36 25 -65 93 -66 151 -1 46 -4 53 -21
53 -13 0 -26 13 -39 40 -18 38 -20 39 -38 24 -10 -10 -18 -30 -18 -46 0 -35
-17 -36 -32 -3 -9 21 -7 33 15 78 15 29 27 56 27 61 0 9 -32 4 -62 -9 -16 -6
-18 -1 -18 43 0 96 -17 106 -50 30z m142 -336 c13 -10 15 -5 12 40 -3 41 -2
46 5 23 20 -77 71 -144 134 -176 44 -23 48 -31 9 -20 -78 23 -172 103 -211
179 -30 59 -26 65 8 12 15 -25 35 -51 43 -58z m289 -116 c17 -14 26 -26 21
-26 -6 0 -24 12 -41 26 -23 19 -31 34 -30 57 l1 32 9 -32 c5 -17 23 -43 40
-57z"/>
<path d="M4693 3653 c-32 -6 -73 -59 -73 -94 0 -17 11 -41 28 -60 22 -25 36
-31 67 -31 31 0 45 6 67 31 37 41 37 81 1 120 -30 31 -54 41 -90 34z m80 -45
c41 -49 7 -122 -58 -122 -61 0 -94 60 -64 115 22 42 89 46 122 7z"/>
<path d="M1700 3538 c-60 -40 -81 -93 -92 -226 -18 -232 12 -468 77 -599 29
-59 50 -85 108 -134 169 -142 363 -193 837 -220 266 -15 806 -7 995 16 406 47
731 151 908 291 68 53 102 116 113 204 6 50 4 59 -20 87 -56 66 -49 66 -676
67 -311 1 -573 5 -583 10 -27 13 -17 27 49 72 68 46 191 100 339 149 l100 33
47 68 c27 37 46 69 44 71 -8 9 -249 -79 -331 -120 -156 -78 -328 -215 -368
-292 -20 -40 -30 -97 -19 -113 5 -7 40 -19 78 -27 84 -18 477 -20 774 -5 268
14 314 14 348 -4 57 -29 67 -119 19 -164 -77 -73 -299 -126 -631 -152 -279
-22 -1088 -4 -1409 31 -105 11 -244 47 -305 78 -69 35 -157 109 -201 168 -109
144 -154 329 -164 656 l-2 78 -35 -23z"/>
<path d="M3350 3427 c-28 -14 -54 -61 -46 -83 3 -8 16 -14 28 -14 20 -1 21 -2
6 -11 -10 -5 -18 -14 -18 -19 0 -5 15 -1 33 10 17 11 39 20 48 20 9 0 19 7 23
15 4 12 -2 15 -28 15 -45 0 -66 9 -66 27 0 10 9 14 33 11 26 -2 32 1 32 16 0
25 -14 29 -45 13z"/>
<path d="M6021 3426 c-9 -10 -8 -21 3 -42 8 -16 19 -40 25 -54 9 -24 10 -24
10 -3 1 12 9 38 18 58 15 31 15 37 3 45 -22 14 -46 12 -59 -4z"/>
<path d="M5974 3375 c11 -8 28 -27 38 -42 19 -28 19 -28 13 -3 -10 33 -34 60
-54 60 -13 -1 -13 -3 3 -15z"/>
<path d="M6096 3368 c-8 -13 -17 -34 -20 -48 -6 -23 -6 -23 5 -5 6 11 23 32
37 48 21 22 22 27 9 27 -9 0 -23 -10 -31 -22z"/>
<path d="M5025 3332 c-36 -23 -135 -129 -135 -145 0 -7 -9 6 -19 28 -10 22
-25 46 -35 54 -15 12 -21 10 -53 -15 -37 -31 -87 -110 -102 -162 -8 -25 -5
-34 14 -52 l24 -22 14 35 c18 42 42 62 27 22 -6 -15 -10 -29 -10 -31 0 -3 26
18 58 46 31 28 86 65 122 82 36 16 76 37 90 45 52 30 97 46 140 50 l45 4 -55
-19 c-98 -33 -101 -39 -19 -44 54 -4 82 -2 102 9 27 13 67 67 67 88 0 12 -101
35 -185 41 -47 4 -66 1 -90 -14z"/>
<path d="M6895 3334 c-27 -7 -60 -14 -72 -14 -27 0 -28 -2 -7 -46 27 -56 66
-73 153 -67 82 6 79 12 -19 45 l-55 19 50 -5 c64 -6 255 -100 343 -168 61 -48
62 -48 57 -21 -6 26 -5 26 14 -7 11 -19 20 -41 21 -48 0 -7 11 -29 24 -50 14
-20 30 -57 37 -81 l13 -45 12 45 c10 38 11 18 10 -138 -1 -176 0 -181 18 -165
10 9 29 36 43 59 31 53 38 55 18 6 -38 -91 -147 -253 -234 -347 -27 -29 -38
-46 -26 -41 110 45 242 54 301 21 l29 -17 -29 6 c-15 3 -59 6 -95 6 -79 0
-142 -19 -300 -91 -203 -94 -332 -100 -490 -23 -60 28 -95 55 -164 125 -63 63
-89 84 -93 74 -7 -18 21 -59 93 -140 42 -47 54 -69 64 -114 6 -31 16 -66 22
-79 12 -27 55 -55 112 -73 51 -16 85 -47 85 -77 0 -32 13 -29 49 12 55 63 53
122 -5 160 -18 11 -40 25 -50 32 -16 10 -14 11 16 6 46 -7 74 -25 138 -90 103
-102 130 -220 77 -330 -30 -61 -85 -107 -148 -124 -57 -15 -105 -3 -144 36
-27 27 -33 40 -33 78 0 57 36 97 86 97 45 0 79 -32 64 -60 -13 -24 -28 -26
-26 -4 2 23 -22 30 -30 9 -4 -9 0 -23 9 -32 21 -22 57 -8 63 25 5 23 11 27 37
27 22 0 33 5 35 17 3 14 -2 16 -30 11 -20 -3 -49 1 -72 11 -75 31 -125 15
-157 -51 -59 -122 67 -246 216 -213 97 22 161 85 192 189 13 45 17 52 24 36 4
-11 8 -14 8 -6 1 8 14 2 35 -17 32 -28 91 -50 102 -39 10 10 -41 96 -63 106
-30 14 -53 14 -53 1 0 -5 8 -10 18 -10 11 0 26 -8 35 -18 26 -28 20 -35 -10
-12 -16 11 -39 21 -53 22 -15 2 -28 11 -32 23 -9 28 -9 72 0 59 19 -30 99 -45
130 -25 10 6 2 18 -28 45 -37 33 -47 37 -86 35 -41 -3 -46 -1 -66 31 -13 22
-16 36 -9 38 16 5 41 32 41 43 0 6 -8 8 -18 5 -15 -5 -182 66 -182 77 0 7 115
-5 149 -15 19 -6 62 -37 96 -68 76 -71 112 -90 179 -97 65 -7 124 20 161 74
33 50 32 60 -9 55 -25 -3 -52 6 -107 37 -94 51 -136 58 -232 36 -74 -16 -138
-17 -92 -1 11 4 54 20 95 36 l76 30 89 -36 c104 -41 209 -54 269 -34 33 10 37
15 32 36 -5 18 -2 24 11 24 10 0 36 12 58 25 50 31 91 32 122 3 l23 -21 0 27
c0 65 -70 134 -160 157 l-49 12 19 25 c11 13 17 28 14 33 -8 14 -116 10 -170
-6 -27 -8 -51 -15 -53 -15 -2 0 18 19 45 43 145 126 198 243 165 365 -11 38
-15 42 -34 37 -12 -4 -34 -15 -49 -26 -31 -22 -32 -20 -17 48 13 55 2 112 -30
153 l-20 25 -30 -23 -31 -23 0 34 c0 74 -52 175 -116 223 l-36 28 -22 -29
c-11 -16 -23 -40 -26 -53 -5 -23 -9 -20 -55 38 -85 106 -154 129 -280 94z
m-183 -1203 c83 -35 138 -99 138 -158 l-1 -28 -16 30 c-31 58 -66 95 -125 135
-65 43 -64 51 4 21z m566 -113 c52 -25 90 -38 104 -35 15 4 18 3 10 -5 -22
-22 -123 -3 -205 37 -43 21 -80 42 -84 48 -13 21 95 -6 175 -45z m-84 -164
l31 -13 -36 -1 c-24 0 -42 7 -55 21 -19 22 -19 22 5 14 14 -4 38 -14 55 -21z"/>
<path d="M2510 3158 c-245 -83 -447 -152 -449 -154 -21 -20 65 6 440 131 420
141 469 159 459 168 -3 3 -205 -63 -450 -145z"/>
<path d="M5796 3274 c-22 -22 -20 -51 4 -59 12 -4 32 -24 47 -46 14 -21 27
-39 28 -39 8 0 -10 146 -19 152 -18 12 -44 9 -60 -8z"/>
<path d="M6241 3281 c-9 -6 -11 -18 -7 -35 6 -23 -3 -84 -20 -132 -4 -10 7 2
23 27 17 25 42 55 57 66 28 22 34 51 14 71 -14 14 -47 15 -67 3z"/>
<path d="M5906 3248 c-17 -24 -19 -67 -6 -108 6 -20 8 -14 9 26 1 36 7 59 22
78 16 21 17 26 5 26 -8 0 -22 -10 -30 -22z"/>
<path d="M6171 3248 c7 -13 18 -43 25 -68 l12 -45 1 48 c1 54 -12 87 -35 87
-12 0 -13 -4 -3 -22z"/>
<path d="M5250 3180 c44 -21 130 -95 130 -113 0 -5 -20 9 -45 31 -78 68 -126
87 -231 87 -84 0 -95 -2 -165 -37 -53 -26 -93 -56 -137 -102 -52 -54 -74 -86
-59 -86 2 0 39 36 83 79 62 62 89 82 124 91 59 16 182 5 237 -21 43 -21 83
-71 83 -105 1 -11 10 -35 21 -54 l20 -35 -4 51 -4 51 65 -5 c61 -5 65 -4 58
14 -4 10 -16 42 -27 70 -29 76 -56 97 -132 101 l-62 4 45 -21z"/>
<path d="M5743 3184 c-17 -13 -17 -13 5 -14 12 0 42 -10 65 -21 l42 -21 -29
30 c-34 37 -59 44 -83 26z"/>
<path d="M6304 3181 c-17 -10 -42 -34 -54 -53 l-23 -33 29 26 c37 34 67 49 95
49 18 0 19 2 9 15 -16 19 -19 19 -56 -4z"/>
<path d="M6775 3191 c-33 -14 -53 -43 -80 -115 l-26 -69 64 5 65 6 -1 -73 c0
-57 5 -80 23 -112 40 -72 126 -101 204 -69 40 17 76 60 76 92 0 35 17 29 22
-8 10 -66 -18 -129 -76 -172 -38 -29 -159 -35 -207 -11 -80 40 -138 133 -140
223 l0 37 -16 -40 c-9 -23 -16 -72 -17 -115 0 -92 32 -172 87 -214 42 -32 57
-27 57 16 l0 31 23 -21 c46 -43 153 -55 223 -26 62 26 93 52 124 107 52 90 39
197 -31 264 -43 40 -77 53 -141 53 l-51 0 27 -21 c51 -40 18 -99 -54 -99 -71
0 -112 67 -96 155 9 47 74 102 133 111 107 16 196 -14 286 -96 92 -84 139
-198 140 -335 1 -224 -134 -414 -344 -485 -52 -18 -81 -21 -150 -18 -124 6
-215 50 -321 158 -58 59 -80 76 -84 65 -9 -23 75 -115 153 -169 231 -157 485
-115 674 111 50 60 95 145 114 220 78 298 -175 631 -463 611 -77 -6 -134 -31
-207 -92 -46 -38 -48 -39 -28 -10 26 37 80 79 125 99 l33 14 -50 0 c-27 0 -59
-4 -70 -8z"/>
<path d="M1095 3147 c-8 -12 -15 -41 -14 -67 1 -44 1 -44 9 -12 10 43 17 49
41 33 28 -17 34 -8 19 28 -16 39 -36 45 -55 18z"/>
<path d="M6191 3114 c0 -11 3 -14 6 -6 3 7 2 16 -1 19 -3 4 -6 -2 -5 -13z"/>
<path d="M944 3112 c-7 -4 -16 -24 -22 -45 -21 -76 -95 -165 -223 -270 l-34
-28 34 18 c63 34 166 129 199 183 30 50 35 55 65 52 41 -5 65 -26 89 -79 10
-24 21 -43 23 -43 3 0 5 26 4 58 0 35 -3 50 -8 38 -6 -15 -13 -8 -41 40 -37
61 -68 88 -86 76z"/>
<path d="M5632 3108 c-16 -16 -16 -61 0 -56 13 5 30 68 19 68 -4 0 -12 -5 -19
-12z"/>
<path d="M6450 3105 c0 -8 7 -15 15 -15 8 0 15 4 15 9 0 5 -7 11 -15 15 -9 3
-15 0 -15 -9z"/>
<path d="M5520 3067 c-30 -15 -40 -76 -17 -96 18 -14 54 -2 80 27 17 19 17 22
2 51 -17 34 -28 37 -65 18z"/>
<path d="M6570 3058 c36 -26 55 -28 29 -4 -8 8 -25 17 -39 21 -21 6 -19 3 10
-17z"/>
<path d="M687 3007 c-14 -65 17 -106 43 -58 14 26 13 29 -7 27 -13 -1 -19 9
-23 34 l-6 35 -7 -38z"/>
<path d="M1400 2975 l-54 -55 21 -37 c32 -57 37 -103 19 -166 -35 -119 -119
-170 -331 -198 -88 -11 -465 -7 -560 7 -47 7 -95 -21 -133 -76 -45 -67 -53
-65 308 -64 291 1 335 3 423 22 195 41 352 144 414 270 32 66 42 174 23 263
-23 106 -51 114 -130 34z"/>
<path d="M4885 2947 c-123 -126 -152 -211 -94 -273 43 -46 105 -52 268 -28 42
7 43 6 36 -17 -13 -43 -32 -64 -83 -92 -77 -42 -191 -67 -333 -74 -111 -5
-134 -3 -197 16 -87 26 -93 26 -126 0 -27 -22 -66 -87 -66 -112 0 -39 279 -61
418 -33 207 42 397 167 487 320 24 41 28 59 28 120 1 83 -16 127 -69 186 -48
53 -82 70 -141 70 -47 0 -50 -2 -128 -83z m84 -61 c31 -17 101 -90 101 -107 0
-17 -94 -5 -125 15 -28 18 -60 80 -50 96 9 14 42 12 74 -4z"/>
<path d="M5709 2973 c-61 -58 -70 -73 -43 -73 8 0 40 -12 70 -26 62 -29 113
-90 139 -163 21 -63 19 -95 -11 -131 -52 -61 -165 -100 -349 -121 -106 -11
-157 -8 -245 18 -70 20 -98 18 -128 -10 -30 -28 -65 -95 -59 -112 5 -11 80
-26 206 -39 69 -7 226 13 309 39 150 48 298 154 374 271 23 35 46 64 51 64 5
0 61 26 123 57 82 41 129 58 167 61 49 4 54 2 99 -38 62 -54 85 -51 117 13 13
26 26 68 29 93 4 37 1 49 -19 70 -28 30 -90 48 -138 39 -20 -4 -86 -29 -147
-55 -92 -41 -207 -80 -235 -80 -4 0 -12 14 -20 31 -32 79 -120 149 -186 149
-40 0 -50 -5 -104 -57z"/>
<path d="M2724 2988 c-27 -18 -50 -41 -52 -50 -3 -16 8 -18 122 -18 105 0 126
-2 126 -15 0 -13 -22 -15 -135 -15 -113 0 -135 -2 -135 -15 0 -13 23 -15 145
-15 l144 0 7 35 c3 20 4 39 0 42 -3 3 -59 5 -125 4 -76 -1 -122 2 -126 9 -4 6
16 21 49 36 31 14 56 27 56 30 0 13 -34 0 -76 -28z"/>
<path d="M5508 2919 c-10 -5 -18 -19 -18 -30 0 -18 1 -19 25 -3 14 9 25 23 25
30 0 16 -8 17 -32 3z"/>
<path d="M5401 2880 c-1 -45 -25 -107 -59 -158 -26 -39 -56 -132 -46 -141 5
-5 21 -11 36 -15 24 -5 32 -1 57 34 53 73 66 204 28 290 l-15 35 -1 -45z"/>
<path d="M2500 2875 c0 -12 14 -15 70 -15 56 0 70 3 70 15 0 12 -14 15 -70 15
-56 0 -70 -3 -70 -15z"/>
<path d="M448 2803 c7 -3 16 -2 19 1 4 3 -2 6 -13 5 -11 0 -14 -3 -6 -6z"/>
<path d="M5586 2782 l-14 -27 39 0 c49 0 73 -20 38 -34 -51 -19 -89 -85 -75
-129 8 -23 36 -20 79 10 15 11 49 23 75 27 44 6 47 9 45 35 -4 53 -47 102
-108 125 -31 12 -58 21 -60 21 -3 0 -11 -12 -19 -28z"/>
<path d="M7264 2796 c-10 -26 4 -48 28 -44 17 2 23 10 23 28 0 18 -6 26 -23
28 -13 2 -25 -3 -28 -12z"/>
<path d="M486 2787 c3 -10 9 -15 12 -12 3 3 0 11 -7 18 -10 9 -11 8 -5 -6z"/>
<path d="M411 2764 c0 -12 7 -28 17 -35 15 -12 16 -12 6 1 -7 8 -14 24 -17 35
-4 19 -5 19 -6 -1z"/>
<path d="M6336 2671 c30 -34 78 -55 147 -65 38 -6 47 -4 47 7 0 12 -9 14 -39
10 -31 -4 -50 0 -84 20 -24 14 -49 33 -57 41 -7 9 -19 16 -26 16 -9 0 -5 -10
12 -29z"/>
<path d="M7292 2681 c-21 -13 -10 -46 16 -49 27 -4 40 22 22 43 -14 17 -20 18
-38 6z"/>
<path d="M4667 2644 c-8 -9 -9 -47 -1 -67 6 -17 54 -11 54 7 -1 17 -45 67 -53
60z"/>
<path d="M6103 2607 c-22 -12 -76 -78 -104 -128 -9 -16 -19 -26 -22 -22 -9 8
-14 -13 -21 -77 -5 -55 -5 -55 14 -32 l18 22 11 -32 c6 -18 20 -44 31 -58 l20
-25 25 30 c38 46 42 82 13 113 -13 15 -32 45 -42 66 l-17 39 52 53 c54 55 61
72 22 51z"/>
<path d="M4610 2591 c0 -5 6 -14 14 -20 12 -10 13 -8 9 8 -5 21 -23 30 -23 12z"/>
<path d="M6209 2532 c-33 -31 -50 -54 -47 -63 10 -25 126 -82 153 -75 13 3 42
28 65 56 l41 49 -35 15 c-19 8 -52 26 -73 40 -21 14 -41 26 -45 26 -3 0 -30
-22 -59 -48z"/>
<path d="M7268 2558 c-8 -21 2 -38 22 -38 19 0 30 17 23 38 -3 6 -13 12 -23
12 -10 0 -20 -6 -22 -12z"/>
<path d="M1567 2484 c-14 -14 -7 -34 13 -34 24 0 26 -17 4 -50 -13 -21 -12
-21 11 4 32 34 31 79 0 84 -12 2 -24 0 -28 -4z"/>
<path d="M7225 2460 c-4 -6 -1 -17 5 -26 15 -18 42 0 33 22 -6 16 -29 19 -38
4z"/>
<path d="M6513 2447 c-11 -18 126 -135 201 -173 53 -26 81 -34 122 -34 62 0
67 10 25 49 -33 31 -116 61 -167 61 -25 0 -34 4 -34 16 0 13 6 15 28 10 64
-15 88 -16 102 -7 12 8 11 14 -9 35 -32 34 -83 49 -135 42 -24 -4 -62 -3 -85
3 -28 6 -43 6 -48 -2z"/>
<path d="M7160 2365 c0 -10 7 -15 18 -13 21 4 19 22 -2 26 -10 2 -16 -3 -16
-13z"/>
<path d="M5758 2309 c-75 -38 -78 -40 -78 -75 0 -44 21 -82 62 -111 l30 -21
-79 5 c-67 5 -85 2 -120 -15 -23 -12 -51 -36 -64 -53 -27 -38 -16 -48 51 -50
l45 -1 -44 -15 c-65 -23 -126 -89 -139 -149 -23 -106 31 -197 137 -233 80 -26
175 3 218 68 34 51 31 59 -27 53 -44 -4 -52 -2 -80 26 -72 72 -3 202 108 202
46 0 66 -13 143 -86 105 -101 156 -101 258 0 36 35 76 69 88 75 54 27 141 2
173 -51 47 -77 5 -168 -77 -168 -22 0 -45 6 -52 13 -11 10 -12 7 -6 -13 40
-138 206 -174 319 -69 83 75 86 184 10 269 -21 23 -57 47 -87 59 l-52 20 45 1
c83 1 88 30 13 87 -32 25 -45 28 -112 28 -42 0 -89 -4 -106 -9 l-30 -9 29 34
c39 46 56 89 56 143 l0 44 -40 -15 c-32 -13 -48 -14 -76 -5 -32 9 -35 9 -27
-6 15 -31 9 -126 -11 -172 -38 -87 -153 -230 -185 -230 -18 0 -113 95 -155
154 -59 82 -82 152 -66 201 7 21 24 44 41 54 l29 18 -23 21 c-13 12 -27 22
-33 22 -5 -1 -44 -19 -86 -41z m24 -279 c29 -11 78 -40 108 -65 30 -25 72 -57
93 -71 67 -48 30 -38 -42 10 -88 59 -129 76 -182 76 -70 0 -121 -21 -171 -72
-43 -42 -48 -52 -48 -92 0 -33 6 -52 26 -75 21 -25 22 -31 9 -31 -22 0 -63 43
-71 74 -23 91 63 190 187 217 43 9 50 14 34 20 -11 4 -47 8 -80 9 -43 1 -54 4
-40 10 36 15 123 11 177 -10z m713 10 c14 -6 3 -9 -40 -10 -92 -2 -109 -14
-43 -29 114 -25 188 -100 188 -190 0 -43 -34 -95 -70 -104 -25 -7 -25 1 0 28
31 33 40 75 25 119 -17 50 -38 71 -98 101 -90 44 -175 31 -287 -45 -73 -50
-110 -64 -55 -22 22 17 69 54 105 82 36 27 83 56 105 64 44 16 139 19 170 6z"/>
<path d="M7090 2305 c0 -8 5 -15 10 -15 6 0 10 7 10 15 0 8 -4 15 -10 15 -5 0
-10 -7 -10 -15z"/>
<path d="M4031 2291 c-6 -11 -11 -37 -10 -58 l1 -38 9 33 c10 32 33 43 42 20
2 -7 8 -10 12 -5 13 11 -8 61 -27 65 -9 2 -21 -6 -27 -17z"/>
<path d="M7010 2280 c0 -5 5 -10 11 -10 5 0 7 5 4 10 -3 6 -8 10 -11 10 -2 0
-4 -4 -4 -10z"/>
<path d="M4883 2272 c-17 -11 73 -69 146 -94 82 -29 156 -33 242 -14 41 9 85
24 99 32 23 14 21 15 -40 8 -36 -5 -108 -8 -161 -8 -94 0 -99 1 -182 42 -95
47 -88 44 -104 34z"/>
<path d="M3887 2253 c-12 -11 -8 -50 6 -61 6 -5 23 -12 37 -14 18 -2 34 -18
57 -58 l33 -54 0 36 c0 20 -3 38 -7 40 -5 2 -25 29 -46 61 -34 53 -61 70 -80
50z"/>
<path d="M5925 2227 c-40 -34 -44 -93 -11 -160 14 -30 35 -62 46 -72 18 -17
18 -13 -5 38 -42 91 -21 174 36 139 16 -10 24 -10 35 -1 17 14 18 51 2 67 -20
20 -74 14 -103 -11z"/>
<path d="M6070 2231 c-23 -44 2 -82 39 -59 60 37 80 -61 32 -156 -35 -70 -16
-54 33 28 45 76 48 130 10 175 -21 25 -34 31 -65 31 -28 0 -41 -5 -49 -19z"/>
<path d="M4276 2225 c-7 -20 -8 -55 -1 -55 3 0 14 9 25 20 28 28 78 26 120 -5
19 -14 42 -25 52 -25 13 0 18 -8 18 -25 0 -60 150 -60 296 -1 l89 35 75 -28
c41 -16 84 -32 95 -36 44 -16 -9 -16 -86 0 -103 21 -150 14 -225 -32 -45 -28
-70 -37 -106 -37 -27 -1 -48 -2 -48 -4 0 -15 36 -65 64 -90 40 -35 88 -48 143
-37 53 10 86 29 148 85 81 73 99 82 178 90 40 4 74 6 76 4 9 -7 -162 -82 -175
-77 -25 9 -15 -27 10 -39 l25 -11 -24 -35 c-22 -33 -29 -36 -65 -33 -35 2 -48
-3 -87 -35 -40 -33 -44 -39 -27 -45 36 -14 91 -9 115 10 l24 19 -3 -39 c-3
-28 -9 -39 -21 -39 -9 0 -36 -12 -60 -25 -44 -25 -44 -25 -29 -3 9 13 28 26
44 29 26 5 27 7 10 14 -28 12 -67 -14 -93 -60 -27 -51 -27 -55 -2 -55 26 0 57
16 92 48 l27 26 1 -30 c2 -28 2 -28 9 6 4 21 9 29 12 20 3 -8 14 -37 23 -64
31 -87 109 -154 198 -170 58 -11 138 16 175 59 57 65 52 167 -11 206 -34 21
-60 21 -140 -2 -39 -11 -52 -11 -68 -1 -19 12 -20 11 -17 -10 2 -19 9 -23 36
-23 23 0 32 -4 32 -16 0 -22 35 -51 57 -47 21 4 25 49 6 56 -8 2 -13 -5 -13
-18 0 -13 -5 -20 -12 -17 -7 2 -13 16 -13 32 0 22 7 31 30 41 65 26 136 -43
120 -117 -7 -30 -60 -83 -95 -94 -67 -21 -165 29 -225 114 -27 39 -30 50 -30
119 0 82 18 132 72 197 47 56 124 113 159 117 19 2 34 3 34 2 0 -1 -20 -14
-44 -28 -74 -43 -81 -102 -21 -174 30 -36 45 -41 45 -14 0 34 30 60 100 87 74
28 105 57 114 105 3 17 9 44 12 61 3 17 20 46 37 66 l31 35 -42 -7 c-24 -4
-68 -22 -100 -41 -158 -95 -308 -94 -522 5 l-107 50 -114 -16 c-98 -14 -130
-15 -229 -4 -63 6 -127 14 -141 17 -19 4 -28 1 -33 -11z m1149 -96 c-51 -27
-109 -82 -147 -139 l-30 -45 5 38 c9 57 50 105 121 138 70 33 111 40 51 8z
m-440 -75 c-11 -9 -49 -30 -85 -47 -67 -32 -173 -48 -192 -29 -6 6 -1 8 15 5
15 -3 48 8 88 28 73 37 133 58 169 58 25 0 25 0 5 -15z m-5 -180 c0 -15 -37
-33 -65 -33 -30 0 -30 1 10 19 44 20 55 23 55 14z"/>
<path d="M1628 2143 c7 -3 12 -23 12 -49 0 -45 0 -45 -22 -30 -31 22 -45 20
-73 -9 -29 -29 -34 -88 -9 -123 17 -25 71 -31 92 -10 9 9 12 9 12 0 0 -7 12
-12 28 -11 15 0 21 3 15 6 -9 3 -13 37 -13 119 l0 114 -27 -1 c-16 0 -22 -3
-15 -6z m10 -147 c4 -53 -9 -76 -43 -76 -40 0 -60 47 -44 105 11 37 34 48 64
30 15 -9 21 -25 23 -59z"/>
<path d="M573 2133 c15 -4 17 -18 17 -108 0 -90 -2 -104 -17 -108 -10 -3 12
-5 49 -6 37 0 78 3 92 9 45 17 47 88 3 107 l-22 10 23 12 c27 14 29 52 4 74
-14 13 -37 17 -93 16 -41 -1 -66 -3 -56 -6z m125 -15 c7 -7 12 -21 12 -33 0
-31 -19 -45 -62 -45 l-38 0 0 45 0 45 38 0 c21 0 43 -5 50 -12z m3 -98 c13 -7
19 -21 19 -45 0 -40 -20 -55 -74 -55 l-36 0 0 55 0 55 36 0 c19 0 44 -5 55
-10z"/>
<path d="M2033 2133 c15 -4 17 -18 17 -108 0 -90 -2 -104 -17 -108 -10 -3 5
-5 32 -5 28 0 42 2 33 5 -14 3 -18 15 -18 54 l0 50 33 -3 c27 -3 36 -11 60
-55 24 -44 33 -53 55 -52 26 0 26 1 5 9 -13 5 -23 16 -23 23 0 8 -11 31 -25
51 -13 20 -20 36 -15 36 15 0 40 31 40 51 0 10 -9 28 -20 39 -17 17 -32 20
-97 19 -43 -1 -70 -3 -60 -6z m137 -22 c24 -45 -1 -81 -56 -81 l-34 0 0 50 0
50 40 0 c29 0 42 -5 50 -19z"/>
<path d="M2640 2095 c0 -14 -6 -25 -12 -25 -10 0 -10 -2 -1 -8 7 -4 13 -37 15
-77 3 -61 6 -70 23 -73 16 -3 18 -1 8 9 -8 8 -13 39 -13 76 l0 63 33 1 32 1
-30 7 c-21 4 -31 13 -33 29 -5 30 -22 28 -22 -3z"/>
<path d="M3730 2096 c0 -15 -7 -26 -17 -29 -17 -4 -17 -5 -1 -6 14 -1 18 -14
20 -73 3 -64 6 -73 23 -76 16 -3 18 -1 8 9 -8 8 -13 39 -13 75 l0 63 33 4 32
4 -32 1 c-28 2 -33 6 -33 27 0 14 -4 25 -10 25 -5 0 -10 -11 -10 -24z"/>
<path d="M6030 2104 c-16 -19 -17 -93 -2 -119 10 -17 11 -12 12 33 0 28 5 52
10 52 6 0 10 -26 10 -57 0 -40 3 -53 10 -43 17 27 22 90 10 121 -14 32 -31 37
-50 13z"/>
<path d="M862 2064 c-12 -8 -22 -10 -22 -5 0 6 -12 10 -27 10 -17 -1 -21 -3
-10 -6 14 -4 17 -16 17 -73 0 -57 -3 -69 -17 -73 -10 -3 2 -5 27 -5 25 0 37 2
28 5 -14 3 -18 15 -18 54 0 28 5 59 10 70 12 21 56 26 63 7 2 -7 8 -10 12 -6
12 12 -3 38 -22 38 -10 0 -29 -7 -41 -16z"/>
<path d="M993 2070 c-45 -18 -60 -103 -23 -140 25 -25 49 -27 27 -2 -35 38
-15 142 27 142 33 0 51 -28 51 -80 0 -40 -5 -55 -19 -66 -17 -12 -17 -14 -3
-14 25 0 47 40 47 86 0 34 -5 47 -26 63 -29 23 -46 25 -81 11z"/>
<path d="M1173 2056 c-22 -19 -28 -33 -28 -64 0 -42 26 -82 52 -82 9 0 7 6 -7
20 -40 40 -15 140 35 140 8 0 23 -10 35 -22 20 -22 20 -22 20 -1 0 15 -8 22
-31 27 -45 9 -45 9 -76 -18z"/>
<path d="M1358 2073 c-10 -2 -18 -12 -18 -20 0 -14 2 -14 18 0 23 21 46 22 66
1 26 -25 20 -44 -13 -44 -67 0 -98 -30 -80 -77 7 -20 14 -22 86 -21 43 1 70 3
61 6 -15 3 -18 14 -18 61 0 31 -6 65 -12 74 -14 18 -61 29 -90 20z m82 -101
c0 -35 -16 -52 -52 -52 -21 0 -29 6 -34 25 -8 34 11 55 52 55 31 0 34 -3 34
-28z"/>
<path d="M1757 2060 c-22 -17 -27 -30 -27 -64 0 -46 22 -86 47 -86 16 0 16 1
0 13 -9 6 -19 24 -23 40 l-6 27 67 0 67 0 -7 28 c-14 57 -72 78 -118 42z m77
-6 c9 -8 16 -24 16 -35 0 -16 -7 -19 -51 -19 -48 0 -50 1 -44 23 13 43 52 59
79 31z"/>
<path d="M2293 2056 c-22 -19 -28 -33 -28 -64 0 -43 26 -82 53 -82 14 0 14 2
-1 13 -9 6 -19 24 -23 40 l-6 27 66 0 c36 0 66 2 66 4 0 24 -28 69 -47 77 -37
14 -49 11 -80 -15z m81 -8 c27 -38 20 -48 -34 -48 -56 0 -65 15 -30 50 26 26
45 25 64 -2z"/>
<path d="M2488 2073 c-22 -6 -35 -50 -19 -66 7 -7 26 -17 43 -23 44 -15 59
-41 34 -60 -16 -11 -17 -14 -4 -14 22 0 40 25 36 52 -2 16 -15 27 -48 39 -55
20 -68 54 -24 65 21 6 31 2 46 -16 17 -21 18 -21 18 -2 0 26 -36 37 -82 25z"/>
<path d="M2783 2070 c-13 -5 -23 -14 -23 -20 0 -14 9 -13 26 5 22 21 50 19 68
-7 20 -28 12 -38 -28 -38 -19 0 -44 -9 -57 -19 -20 -16 -22 -23 -14 -47 10
-28 12 -29 85 -30 41 -1 69 1 63 3 -8 3 -13 23 -13 51 0 66 -8 88 -36 101 -29
13 -41 13 -71 1z m84 -86 c3 -8 1 -27 -6 -40 -9 -21 -17 -25 -44 -22 -59 6
-46 78 15 78 17 0 31 -6 35 -16z"/>
<path d="M3222 2064 c-12 -8 -22 -10 -22 -5 0 6 -12 10 -27 10 -17 -1 -21 -3
-10 -6 14 -4 17 -16 17 -73 0 -57 -3 -69 -17 -73 -10 -3 2 -5 27 -5 25 0 37 2
28 5 -14 3 -18 15 -18 54 0 28 5 59 10 70 12 21 56 26 63 7 2 -7 8 -10 12 -6
12 12 -3 38 -22 38 -10 0 -29 -7 -41 -16z"/>
<path d="M3343 2073 c-13 -2 -23 -11 -23 -19 0 -12 4 -12 25 2 32 21 75 6 75
-26 0 -16 -7 -20 -33 -20 -41 0 -77 -25 -77 -54 0 -32 19 -46 60 -45 26 1 29
3 10 6 -23 4 -50 28 -50 44 0 18 34 39 61 39 30 0 30 -1 27 -42 -3 -41 -2 -43
27 -45 17 -1 22 1 13 3 -15 5 -18 17 -18 69 0 55 -3 66 -22 79 -22 16 -33 17
-75 9z"/>
<path d="M3572 2064 c-12 -8 -22 -10 -22 -5 0 6 -12 10 -27 10 -17 -1 -21 -3
-10 -6 14 -4 17 -16 17 -68 0 -50 -4 -66 -17 -74 -14 -8 -10 -10 22 -10 22 0
34 3 28 6 -17 6 -17 115 -1 131 17 17 55 15 62 -4 11 -29 7 -122 -6 -127 -7
-3 5 -5 27 -5 22 0 32 2 23 5 -15 4 -18 16 -18 73 0 58 -3 71 -19 80 -26 13
-33 13 -59 -6z"/>
<path d="M2948 2063 c7 -3 12 -24 12 -53 0 -76 13 -100 54 -100 19 0 37 4 40
9 3 5 -9 8 -27 7 l-32 -1 -3 73 c-3 71 -3 72 -30 71 -15 0 -21 -3 -14 -6z"/>
<path d="M3053 2063 c16 -4 18 -14 17 -66 -3 -87 -3 -87 28 -86 16 1 20 3 10
6 -15 4 -18 16 -18 79 l0 74 -27 -1 c-19 -1 -22 -3 -10 -6z"/>
<path d="M1251 1929 c-16 -13 -18 -19 -8 -19 15 0 43 27 36 34 -2 3 -15 -4
-28 -15z"/>
<path d="M1841 1929 c-16 -13 -18 -19 -8 -19 15 0 43 27 36 34 -2 3 -15 -4
-28 -15z"/>
<path d="M2378 1929 c-15 -15 -15 -19 -3 -19 8 0 19 9 25 20 13 25 1 25 -22
-1z"/>
<path d="M2460 1933 c0 -17 6 -23 23 -23 16 0 18 3 8 9 -7 5 -17 15 -22 22 -6
10 -9 8 -9 -8z"/>
<path d="M2702 1925 c-10 -12 -10 -15 2 -15 7 0 16 7 20 15 7 19 -5 19 -22 0z"/>
<path d="M3792 1924 c-7 -8 -8 -14 -3 -14 10 0 25 19 20 25 -2 1 -10 -3 -17
-11z"/>
<path d="M5963 1750 c0 -47 18 -60 87 -60 66 0 88 14 88 53 l0 35 -36 -15
c-41 -17 -96 -12 -122 12 -16 15 -17 13 -17 -25z"/>
<path d="M7142 1684 c-1 -11 -9 -29 -17 -40 -8 -10 -15 -31 -15 -46 0 -30 29
-98 42 -98 14 0 48 64 48 91 0 15 -9 37 -20 50 l-20 24 6 -42 c4 -23 3 -50 -2
-60 -6 -12 -10 7 -14 62 -4 44 -7 71 -8 59z"/>
<path d="M4953 1658 c2 -62 -4 -108 -14 -102 -7 4 -9 25 -6 58 6 47 5 49 -9
31 -8 -11 -17 -30 -20 -42 -6 -24 24 -95 42 -100 7 -2 21 16 33 40 21 43 21
46 5 86 -16 39 -32 55 -31 29z"/>
<path d="M5885 1651 c-56 -14 -92 -40 -164 -120 -80 -89 -114 -106 -193 -99
l-50 5 5 -35 c8 -46 45 -99 80 -113 16 -7 48 -9 76 -6 48 6 49 5 57 -26 12
-39 62 -71 97 -62 23 6 24 9 15 43 -28 100 18 255 99 340 22 23 37 42 33 42
-24 0 -112 -76 -181 -156 -103 -119 -153 -147 -201 -110 -26 19 -22 27 8 15
50 -18 87 5 175 108 83 97 146 146 203 159 27 6 29 8 11 15 -24 9 -31 9 -70 0z"/>
<path d="M6152 1652 c-20 -6 -16 -10 29 -25 52 -19 112 -71 227 -200 52 -58
81 -71 131 -58 l36 10 -24 -19 c-45 -38 -108 -16 -169 59 -70 87 -147 163
-186 183 l-40 20 44 -48 c63 -71 93 -143 98 -236 2 -42 0 -90 -6 -107 -10 -28
-9 -31 11 -33 62 -4 107 29 107 78 0 21 3 23 19 14 31 -16 93 -12 129 10 32
19 52 54 65 110 6 26 6 26 -56 22 -80 -4 -115 15 -184 99 -72 89 -167 139
-231 121z"/>
<path d="M5921 1500 c-66 -96 -71 -192 -15 -251 25 -26 29 -28 35 -12 4 10 3
41 -2 68 -12 76 -10 155 6 200 8 21 13 40 12 42 -2 1 -18 -20 -36 -47z"/>
<path d="M6156 1515 c14 -33 15 -62 10 -170 l-7 -130 30 29 c38 36 55 86 46
134 -7 40 -44 114 -75 152 l-20 25 16 -40z"/>
<path d="M6081 1502 c9 -26 8 -51 -5 -115 -21 -106 -20 -162 3 -212 26 -56 52
-77 177 -143 115 -61 145 -90 164 -162 14 -50 -6 -109 -42 -129 -24 -14 -28
-14 -48 4 -16 14 -20 27 -16 47 5 24 2 28 -18 28 -12 0 -32 -10 -44 -23 -63
-67 28 -164 118 -127 17 7 42 27 56 44 l26 31 -23 -42 c-15 -30 -36 -49 -64
-63 -49 -24 -65 -25 -110 -6 -70 30 -83 118 -31 217 33 65 34 112 1 144 -28
29 -76 33 -100 8 -16 -16 -16 -17 4 -25 40 -14 44 -46 16 -121 -40 -108 -29
-199 32 -247 24 -19 24 -19 4 -30 -28 -14 -27 -55 1 -74 31 -22 38 -20 38 8 0
34 20 46 90 56 117 17 175 84 175 205 0 58 -5 79 -28 121 -16 28 -46 64 -68
80 -21 16 -39 32 -39 37 0 4 16 7 36 7 75 0 125 99 74 150 -24 24 -63 26 -84
4 -21 -20 -20 -31 3 -37 29 -7 42 -39 28 -68 -40 -79 -273 20 -306 130 -9 33
-9 51 3 98 28 109 25 172 -9 210 l-25 28 11 -33z"/>
<path d="M5995 1490 c-20 -38 -19 -106 2 -185 20 -77 9 -127 -40 -176 -67 -67
-214 -111 -251 -74 -23 24 -17 67 12 80 39 17 19 55 -30 55 -68 0 -92 -87 -39
-141 23 -23 38 -29 73 -29 l43 0 -54 -47 c-68 -59 -90 -108 -91 -195 0 -130
49 -187 177 -208 59 -10 90 -30 95 -61 3 -18 5 -19 26 -4 25 19 29 57 7 75
-14 12 -13 16 8 39 14 14 30 37 37 51 20 38 15 119 -9 176 -28 64 -25 115 7
129 28 13 28 23 -2 36 -50 23 -116 -19 -116 -72 0 -15 13 -56 30 -91 53 -112
35 -194 -49 -219 -29 -9 -47 -9 -74 0 -40 13 -97 72 -97 99 0 11 6 7 19 -14
35 -58 118 -69 168 -22 46 43 18 128 -42 128 -27 0 -32 -9 -14 -27 8 -8 8 -17
0 -31 -34 -63 -111 -11 -111 74 0 85 48 138 186 207 102 51 159 105 170 162 3
20 3 69 -1 108 -4 40 -8 102 -9 140 0 37 -4 67 -8 67 -4 0 -14 -13 -23 -30z"/>
<path d="M5217 1437 c91 -99 119 -191 73 -237 -20 -20 -71 -27 -105 -14 -16 6
-45 54 -45 74 0 5 9 19 20 30 l20 20 -25 0 c-92 0 -146 -111 -92 -191 67 -100
193 -106 266 -12 19 23 22 24 42 10 27 -19 46 -12 64 24 48 92 -30 227 -174
303 -38 20 -72 36 -76 36 -4 0 10 -19 32 -43z"/>
<path d="M6851 1450 c-76 -42 -118 -76 -152 -123 -53 -73 -61 -165 -17 -209
18 -18 21 -18 44 -3 24 15 26 15 58 -19 38 -41 72 -56 124 -56 106 0 180 106
142 204 -12 32 -66 66 -105 66 l-29 0 22 -16 c51 -35 6 -114 -66 -114 -50 0
-82 32 -82 81 0 40 52 134 103 187 38 40 28 40 -42 2z"/>
<path d="M6037 989 c-8 -19 -26 -43 -41 -52 -16 -11 -26 -26 -26 -42 0 -22 3
-25 25 -19 21 5 25 3 25 -16 0 -29 18 -60 35 -60 8 0 20 18 26 40 10 32 16 39
31 34 29 -9 24 40 -7 64 -14 11 -31 35 -39 53 l-14 33 -15 -35z"/>
<path d="M5525 986 c-58 -14 -115 -42 -115 -56 0 -6 20 -10 45 -10 l46 0 -16
-30 c-9 -17 -13 -40 -9 -55 8 -31 51 -75 75 -75 15 0 17 6 12 35 -7 46 35 134
85 175 l37 30 -55 -1 c-30 0 -77 -6 -105 -13z"/>
<path d="M6430 996 c0 -3 18 -22 39 -42 46 -41 75 -108 69 -158 -3 -30 -1 -36
14 -36 25 0 66 42 74 76 5 18 2 37 -9 56 l-16 28 44 0 c68 0 56 26 -25 55 -47
16 -190 33 -190 21z"/>
</g>
</svg>
